30 Nights Of Paranormal Activity With The Devil Inside The Girl With The Dragon Tattoo DVDRIP XviD - RiSES

 
http://www.imdb.com/title/tt2417650/


Source Used :-

Video - AXED- Thanks!
Audio - AXED - Thanks!
Encoder - "Smoker"

Video
ID : 0
Format : MPEG-4 Visual
Format profile : Advanced Simple@L5
Format settings, BVOP : 2
Format settings, QPel : Yes
Format settings, GMC : No warppoints
Format settings, Matrix : Default (H.263)
Codec ID : XVID
Codec ID/Hint : XviD
Duration : 1h 19mn
Bit rate : 1 019 Kbps
Width : 640 pixels
Height : 336 pixels
Display aspect ratio : 1.905
Frame rate : 23.976 fps
Color space : YUV
Chroma subsampling : 4:2:0
Bit depth : 8 bits
Scan type : Progressive
Compression mode : Lossy
Bits/(Pixel*Frame) : 0.198
Stream size : 583 MiB (84%)
Writing library : XviD 1.2.1 (UTC 2008-12-04)

Audio
ID : 1
Format : MPEG Audio
Format version : Version 1
Format profile : Layer 3
Mode : Joint stereo
Mode extension : MS Stereo
Codec ID : 55
Codec ID/Hint : MP3
Duration : 1h 19mn
Bit rate mode : Constant
Bit rate : 192 Kbps
Channel(s) : 2 channels
Sampling rate : 48.0 KHz
Compression mode : Lossy
Stream size : 110 MiB (16%)
Alignment : Aligned on interleaves
Interleave, duration : 167 ms (4.00 video frames)
Interleave, preload duration : 216 ms
Encoding settings : -m j -V 4 -q 2 -lowpass 18.6 -b 192


Poster:

 
http://imgon.net/di-1OH7.jpg


Screenshots:

 
http://imgon.net/di-ML4T.png

 
http://imgon.net/di-YAMT.png

 
http://imgon.net/di-LA26.png


SEED AND ENJOY!